<svg width="619" height="232" viewBox="0 0 619 232" fill="none" xmlns="http://www.w3.org/2000/svg">
<path d="M60.69 183.55C51.1133 183.55 42.6417 181.595 35.275 177.685C27.965 173.718 22.2417 168.193 18.105 161.11C13.9683 153.97 11.9 145.583 11.9 135.95V58.685L29.92 58.6V135.015C29.92 140.228 30.7983 144.818 32.555 148.785C34.3117 152.752 36.6633 156.067 39.61 158.73C42.5567 161.393 45.8433 163.405 49.47 164.765C53.1533 166.125 56.8933 166.805 60.69 166.805C64.5433 166.805 68.2833 166.125 71.91 164.765C75.5933 163.348 78.9083 161.308 81.855 158.645C84.8017 155.982 87.125 152.667 88.825 148.7C90.5817 144.733 91.46 140.172 91.46 135.015V58.6H109.48V135.95C109.48 145.527 107.412 153.885 103.275 161.025C99.1383 168.165 93.3867 173.718 86.02 177.685C78.71 181.595 70.2667 183.55 60.69 183.55ZM197.687 181V135.865C197.687 132.295 197.376 128.64 196.752 124.9C196.186 121.103 195.052 117.59 193.352 114.36C191.709 111.13 189.357 108.523 186.297 106.54C183.294 104.557 179.356 103.565 174.482 103.565C171.309 103.565 168.306 104.103 165.472 105.18C162.639 106.2 160.146 107.872 157.992 110.195C155.896 112.518 154.224 115.578 152.977 119.375C151.787 123.172 151.192 127.79 151.192 133.23L140.142 129.065C140.142 120.735 141.701 113.397 144.817 107.05C147.934 100.647 152.411 95.66 158.247 92.09C164.084 88.52 171.139 86.735 179.412 86.735C185.759 86.735 191.086 87.755 195.392 89.795C199.699 91.835 203.184 94.5267 205.847 97.87C208.567 101.157 210.636 104.755 212.052 108.665C213.469 112.575 214.432 116.4 214.942 120.14C215.452 123.88 215.707 127.167 215.707 130V181H197.687ZM133.172 181V89.2H149.067V115.72H151.192V181H133.172ZM239.547 74.155V56.9H257.312V74.155H239.547ZM239.547 181V89.2H257.312V181H239.547Z" fill="black"/>
<path fill-rule="evenodd" clip-rule="evenodd" d="M326.318 23.1864C322.343 21.0621 317.8 20 312.689 20C307.579 20 303.052 21.078 299.108 23.2339C295.133 25.3899 292.026 28.4019 289.786 32.2699C287.514 36.1696 286.379 40.7193 286.379 45.919V89.9099H291.868V47.0603C291.868 43.1606 292.53 39.8157 293.855 37.0257C295.149 34.2673 296.837 32.0163 298.919 30.2725C301.001 28.5287 303.257 27.2446 305.686 26.4203C308.115 25.596 310.449 25.1838 312.689 25.1838C314.929 25.1838 317.264 25.596 319.693 26.4203C322.09 27.2446 324.346 28.5287 326.46 30.2725C328.542 32.0163 330.246 34.2673 331.571 37.0257C332.864 39.8157 333.511 43.1606 333.511 47.0603V89.9099H339V45.919C339 40.6876 337.88 36.1221 335.64 32.2223C333.369 28.3543 330.261 25.3423 326.318 23.1864ZM310 146V55H315V146H310ZM367.6 58.6V69.48H374.74V58.6H367.6ZM367.6 89.2V181H374.74V89.2H367.6ZM468.435 132.38V181H475.575V131.02C475.575 125.58 475.037 120.593 473.96 116.06C472.884 111.47 471.297 107.39 469.2 103.82C467.104 100.25 464.525 97.2467 461.465 94.81C458.462 92.3167 455.005 90.4183 451.095 89.115C447.242 87.8117 442.992 87.16 438.345 87.16C431.602 87.16 425.369 88.6333 419.645 91.58C414.476 94.2682 410.226 98.4185 406.895 104.031V89.2H400.265V181H407.405V130.85C407.405 125.92 407.972 121.245 409.105 116.825C410.239 112.405 412.024 108.495 414.46 105.095C416.897 101.695 420.07 99.0317 423.98 97.105C427.947 95.1217 432.735 94.13 438.345 94.13C443.105 94.13 447.327 94.895 451.01 96.425C454.75 97.955 457.924 100.307 460.53 103.48C463.137 106.597 465.092 110.563 466.395 115.38C467.755 120.14 468.435 125.807 468.435 132.38ZM497.716 58.6V181H504.856V136.8L556.536 181H568.776L513.526 135.1L561.466 89.2H550.756L504.856 133.4V58.6H497.716ZM583.868 89.2H577.238V181H584.378V135.78C584.378 132.04 584.52 128.102 584.803 123.965C585.086 119.772 585.88 115.72 587.183 111.81C588.543 107.9 590.838 104.443 594.068 101.44C597.751 98.04 601.718 96.085 605.968 95.575C610.218 95.0083 614.241 95.15 618.038 96V89.2C615.375 88.35 612.315 88.0383 608.858 88.265C605.401 88.435 601.945 89.1717 598.488 90.475C595.088 91.7217 592.141 93.5633 589.648 96C588.231 97.36 586.786 99.1167 585.313 101.27C584.8 102.019 584.319 102.789 583.868 103.579V89.2ZM298.682 178.193C302.657 180.317 307.2 181.379 312.311 181.379C317.421 181.379 321.948 180.301 325.892 178.145C329.867 175.989 332.974 172.977 335.214 169.109C337.486 165.209 338.621 160.66 338.621 155.46V111.469H333.132V154.319C333.132 158.218 332.47 161.563 331.145 164.353C329.851 167.112 328.163 169.363 326.081 171.107C323.999 172.85 321.743 174.134 319.314 174.959C316.885 175.783 314.551 176.195 312.311 176.195C310.071 176.195 307.736 175.783 305.307 174.959C302.91 174.134 300.654 172.85 298.54 171.107C296.458 169.363 294.754 167.112 293.429 164.353C292.136 161.563 291.489 158.218 291.489 154.319V111.469H286V155.46C286 160.691 287.12 165.257 289.36 169.157C291.631 173.025 294.739 176.037 298.682 178.193Z" fill="url(#paint0_linear_178_4)"/>
<defs>
<linearGradient id="paint0_linear_178_4" x1="286" y1="101" x2="618" y2="101" gradientUnits="userSpaceOnUse">
<stop stop-color="#007FB6"/>
<stop offset="1" stop-color="#C08CFB"/>
</linearGradient>
</defs>
</svg>
