<svg width="119" height="32" viewBox="0 0 119 32" fill="none" xmlns="http://www.w3.org/2000/svg">
<path d="M9.54629 32C7.6725 32 6.01494 31.6175 4.57357 30.8524C3.14329 30.0762 2.02346 28.9952 1.21407 27.6093C0.404685 26.2123 0 24.5713 0 22.6865V7.5688L3.52581 7.55217V22.5036C3.52581 23.5236 3.69766 24.4216 4.04137 25.1978C4.38509 25.974 4.84521 26.6226 5.42176 27.1437C5.99831 27.6647 6.64137 28.0584 7.35097 28.3245C8.07165 28.5906 8.80342 28.7236 9.54629 28.7236C10.3002 28.7236 11.032 28.5906 11.7416 28.3245C12.4623 28.0472 13.1109 27.6481 13.6874 27.127C14.264 26.606 14.7186 25.9574 15.0512 25.1812C15.3949 24.405 15.5668 23.5126 15.5668 22.5036V7.55217H19.0926V22.6865C19.0926 24.5604 18.6879 26.1957 17.8785 27.5927C17.0691 28.9897 15.9437 30.0762 14.5024 30.8524C13.0721 31.6175 11.4201 32 9.54629 32ZM36.3512 31.501V22.6699C36.3512 21.9714 36.2904 21.2562 36.1683 20.5245C36.0575 19.7815 35.8357 19.0942 35.503 18.4622C35.1816 17.8302 34.7214 17.3201 34.1226 16.9321C33.5351 16.5441 32.7646 16.3501 31.8109 16.3501C31.1901 16.3501 30.6025 16.4553 30.048 16.666C29.4937 16.8656 29.0059 17.1928 28.5845 17.6473C28.1744 18.1018 27.8472 18.7005 27.6032 19.4434C27.3704 20.1864 27.254 21.0899 27.254 22.1543L25.0919 21.3394C25.0919 19.7095 25.397 18.2738 26.0066 17.0319C26.6165 15.7791 27.4925 14.8034 28.6344 14.1048C29.7764 13.4063 31.1568 13.0571 32.7755 13.0571C34.0174 13.0571 35.0597 13.2567 35.9022 13.6558C36.7449 14.055 37.4268 14.5816 37.9478 15.2358C38.48 15.8789 38.8848 16.5829 39.1619 17.3479C39.4391 18.113 39.6276 18.8614 39.7273 19.5931C39.8271 20.3249 39.877 20.968 39.877 21.5223V31.501H36.3512ZM23.7282 31.501V13.5394H26.8382V18.7283H27.254V31.501H23.7282ZM44.5416 10.5957V7.21954H48.0175V10.5957H44.5416ZM44.5416 31.501V13.5394H48.0175V31.501H44.5416Z" fill="white"/>
<path fill-rule="evenodd" clip-rule="evenodd" d="M61.5195 0.623453C60.7418 0.207811 59.8529 0 58.8528 0C57.853 0 56.9673 0.210922 56.1956 0.632747C55.4178 1.05459 54.8099 1.64392 54.3716 2.40074C53.9271 3.16376 53.705 4.05395 53.705 5.07133V13.6786H54.779V5.29464C54.779 4.53162 54.9085 3.87715 55.1678 3.33126C55.421 2.79155 55.7512 2.35112 56.1586 2.00992C56.566 1.66873 57.0074 1.41748 57.4826 1.2562C57.9579 1.09492 58.4146 1.01427 58.8528 1.01427C59.2911 1.01427 59.748 1.09492 60.2233 1.2562C60.6923 1.41748 61.1337 1.66873 61.5473 2.00992C61.9547 2.35112 62.2881 2.79155 62.5473 3.33126C62.8003 3.87715 62.9269 4.53162 62.9269 5.29464V13.6786H64.0009V5.07133C64.0009 4.04775 63.7817 3.15446 63.3435 2.39142C62.8991 1.63461 62.291 1.04528 61.5195 0.623453ZM58.3267 24.6533V6.84813H59.305V24.6533H58.3267ZM69.5968 7.5525V9.68129H70.9938V7.5525H69.5968ZM69.5968 13.5397V31.5014H70.9938V13.5397H69.5968ZM89.3262 21.9884V31.5014H90.7232V21.7223C90.7232 20.6579 90.618 19.6821 90.4072 18.7952C90.1967 17.8971 89.8862 17.0988 89.4759 16.4003C89.0658 15.7018 88.5612 15.1141 87.9625 14.6374C87.3749 14.1495 86.6985 13.7781 85.9335 13.5231C85.1796 13.2681 84.348 13.1406 83.4388 13.1406C82.1195 13.1406 80.8999 13.4288 79.7799 14.0054C78.7686 14.5314 77.937 15.3434 77.2853 16.4416V13.5397H75.988V31.5014H77.3851V21.689C77.3851 20.7244 77.496 19.8097 77.7177 18.9449C77.9396 18.08 78.2888 17.315 78.7654 16.6498C79.2423 15.9845 79.8631 15.4634 80.6281 15.0864C81.4043 14.6984 82.3411 14.5043 83.4388 14.5043C84.3701 14.5043 85.1962 14.654 85.9168 14.9534C86.6486 15.2527 87.2696 15.7129 87.7795 16.3338C88.2896 16.9436 88.6721 17.7196 88.9271 18.6621C89.1932 19.5935 89.3262 20.7023 89.3262 21.9884ZM95.0554 7.5525V31.5014H96.4524V22.8532L106.564 31.5014H108.959L98.1488 22.5206L107.529 13.5397H105.433L96.4524 22.1879V7.5525H95.0554ZM111.912 13.5397H110.615V31.5014H112.012V22.6536C112.012 21.9218 112.04 21.1513 112.095 20.3419C112.15 19.5215 112.306 18.7286 112.561 17.9636C112.827 17.1986 113.276 16.5222 113.908 15.9346C114.628 15.2694 115.404 14.8868 116.236 14.7871C117.068 14.6762 117.855 14.7039 118.598 14.8702V13.5397C118.077 13.3734 117.478 13.3124 116.801 13.3568C116.125 13.39 115.449 13.5342 114.772 13.7892C114.107 14.0331 113.531 14.3934 113.043 14.8702C112.766 15.1363 112.483 15.48 112.195 15.9013C112.094 16.0479 112 16.1986 111.912 16.3531V13.5397ZM56.1122 30.9522C56.89 31.3677 57.7789 31.5755 58.7789 31.5755C59.7787 31.5755 60.6645 31.3646 61.4362 30.9428C62.2139 30.5209 62.8218 29.9316 63.2601 29.1748C63.7046 28.4117 63.9267 27.5216 63.9267 26.5042V17.8969H62.8527V26.281C62.8527 27.0438 62.7232 27.6983 62.464 28.2442C62.2108 28.784 61.8805 29.2245 61.4731 29.5657C61.0658 29.9067 60.6244 30.158 60.1491 30.3194C59.6738 30.4806 59.2172 30.5612 58.7789 30.5612C58.3406 30.5612 57.8837 30.4806 57.4085 30.3194C56.9395 30.158 56.4981 29.9067 56.0844 29.5657C55.6771 29.2245 55.3437 28.784 55.0844 28.2442C54.8314 27.6983 54.7048 27.0438 54.7048 26.281V17.8969H53.6309V26.5042C53.6309 27.5277 53.85 28.4211 54.2883 29.1842C54.7326 29.941 55.3407 30.5303 56.1122 30.9522Z" fill="url(#paint0_linear_3525_6744)"/>
<defs>
<linearGradient id="paint0_linear_3525_6744" x1="53.6309" y1="15.8485" x2="118.59" y2="15.8485" gradientUnits="userSpaceOnUse">
<stop stop-color="#007FB6"/>
<stop offset="1" stop-color="#C08CFB"/>
</linearGradient>
</defs>
</svg>
