<svg width="20" height="20" viewBox="0 0 20 20" fill="none" xmlns="http://www.w3.org/2000/svg">
<mask id="mask0_3845_99257" style="mask-type:alpha" maskUnits="userSpaceOnUse" x="0" y="0" width="20" height="20">
<rect width="20" height="20" fill="#D9D9D9"/>
</mask>
<g mask="url(#mask0_3845_99257)">
<path d="M4.7916 13.5439V8.54379C4.7916 8.36671 4.85152 8.21827 4.97137 8.09848C5.09121 7.9787 5.23972 7.91881 5.41687 7.91881C5.59402 7.91881 5.74243 7.9787 5.8621 8.09848C5.98175 8.21827 6.04158 8.36671 6.04158 8.54379V13.5439C6.04158 13.7209 5.98165 13.8694 5.86181 13.9891C5.74196 14.1089 5.59346 14.1688 5.41631 14.1688C5.23915 14.1688 5.09074 14.1089 4.97108 13.9891C4.85142 13.8694 4.7916 13.7209 4.7916 13.5439ZM9.37491 13.5439V8.54379C9.37491 8.36671 9.43483 8.21827 9.55466 8.09848C9.67451 7.9787 9.82301 7.91881 10.0002 7.91881C10.1773 7.91881 10.3257 7.9787 10.4454 8.09848C10.565 8.21827 10.6249 8.36671 10.6249 8.54379V13.5439C10.6249 13.7209 10.565 13.8694 10.4451 13.9891C10.3253 14.1089 10.1768 14.1688 9.99962 14.1688C9.82245 14.1688 9.67404 14.1089 9.55439 13.9891C9.43474 13.8694 9.37491 13.7209 9.37491 13.5439ZM2.93262 17.0855C2.75553 17.0855 2.6071 17.0256 2.4873 16.9057C2.36751 16.7859 2.30762 16.6374 2.30762 16.4602C2.30762 16.283 2.36751 16.1346 2.4873 16.015C2.6071 15.8953 2.75553 15.8355 2.93262 15.8355H17.0672C17.2442 15.8355 17.3927 15.8954 17.5125 16.0153C17.6323 16.1351 17.6922 16.2836 17.6922 16.4608C17.6922 16.6379 17.6323 16.7863 17.5125 16.906C17.3927 17.0256 17.2442 17.0855 17.0672 17.0855H2.93262ZM13.9582 13.5439V8.54379C13.9582 8.36671 14.0181 8.21827 14.138 8.09848C14.2578 7.9787 14.4063 7.91881 14.5835 7.91881C14.7606 7.91881 14.909 7.9787 15.0287 8.09848C15.1484 8.21827 15.2082 8.36671 15.2082 8.54379V13.5439C15.2082 13.7209 15.1483 13.8694 15.0284 13.9891C14.9086 14.1089 14.7601 14.1688 14.5829 14.1688C14.4058 14.1688 14.2573 14.1089 14.1377 13.9891C14.018 13.8694 13.9582 13.7209 13.9582 13.5439ZM17.0992 6.25215H2.84126C2.69303 6.25215 2.56703 6.20036 2.46326 6.09679C2.3595 5.99324 2.30762 5.86749 2.30762 5.71954V5.39406C2.30762 5.28558 2.3348 5.19206 2.38916 5.1135C2.44351 5.03496 2.51515 4.97114 2.6041 4.92204L9.33803 1.62719C9.54608 1.52677 9.76635 1.47656 9.99887 1.47656C10.2314 1.47656 10.4523 1.52677 10.6617 1.62719L17.362 4.90121C17.4667 4.95462 17.5479 5.02941 17.6056 5.12556C17.6633 5.22171 17.6922 5.325 17.6922 5.43542V5.66125C17.6922 5.83189 17.6363 5.97303 17.5247 6.08467C17.413 6.19632 17.2712 6.25215 17.0992 6.25215ZM5.2627 5.00217H14.7371L10.1121 2.75858C10.0747 2.74256 10.0373 2.73454 9.99989 2.73454C9.96249 2.73454 9.92509 2.74256 9.8877 2.75858L5.2627 5.00217Z" fill="white"/>
</g>
</svg>
