<svg width="20" height="20" viewBox="0 0 20 20" fill="none" xmlns="http://www.w3.org/2000/svg">
<mask id="mask0_3845_99323" style="mask-type:alpha" maskUnits="userSpaceOnUse" x="0" y="0" width="20" height="20">
<rect width="20" height="20" fill="#D9D9D9"/>
</mask>
<g mask="url(#mask0_3845_99323)">
<path d="M7.49998 14.7903H12.5C12.6773 14.7903 12.8258 14.7305 12.9455 14.6108C13.0651 14.4912 13.125 14.3427 13.125 14.1653C13.125 13.988 13.0651 13.8395 12.9455 13.7198C12.8258 13.6002 12.6773 13.5404 12.5 13.5404H7.49998C7.32263 13.5404 7.17413 13.6002 7.05448 13.7198C6.93483 13.8395 6.875 13.988 6.875 14.1653C6.875 14.3427 6.93483 14.4912 7.05448 14.6108C7.17413 14.7305 7.32263 14.7903 7.49998 14.7903ZM7.49998 11.457H12.5C12.6773 11.457 12.8258 11.3972 12.9455 11.2775C13.0651 11.1579 13.125 11.0094 13.125 10.832C13.125 10.6547 13.0651 10.5062 12.9455 10.3865C12.8258 10.2669 12.6773 10.207 12.5 10.207H7.49998C7.32263 10.207 7.17413 10.2669 7.05448 10.3865C6.93483 10.5062 6.875 10.6547 6.875 10.832C6.875 11.0094 6.93483 11.1579 7.05448 11.2775C7.17413 11.3972 7.32263 11.457 7.49998 11.457ZM5.25642 17.9153C4.83547 17.9153 4.47917 17.7695 4.1875 17.4778C3.89583 17.1862 3.75 16.8299 3.75 16.4089V3.58845C3.75 3.1675 3.89583 2.8112 4.1875 2.51953C4.47917 2.22786 4.83547 2.08203 5.25642 2.08203H11.2516C11.4525 2.08203 11.6456 2.12103 11.8309 2.19903C12.0163 2.27702 12.1773 2.38439 12.3141 2.52114L15.8109 6.01789C15.9476 6.15465 16.055 6.31571 16.133 6.50107C16.211 6.68643 16.25 6.87954 16.25 7.08039V16.4089C16.25 16.8299 16.1041 17.1862 15.8125 17.4778C15.5208 17.7695 15.1645 17.9153 14.7435 17.9153H5.25642ZM11.25 6.32878V3.33201H5.25642C5.19231 3.33201 5.13353 3.35872 5.0801 3.41214C5.02669 3.46557 4.99998 3.52434 4.99998 3.58845V16.4089C4.99998 16.473 5.02669 16.5318 5.0801 16.5852C5.13353 16.6386 5.19231 16.6653 5.25642 16.6653H14.7435C14.8077 16.6653 14.8664 16.6386 14.9199 16.5852C14.9733 16.5318 15 16.473 15 16.4089V7.08199H12.0032C11.7885 7.08199 11.6093 7.01014 11.4656 6.86643C11.3219 6.72273 11.25 6.54352 11.25 6.32878Z" fill="white"/>
</g>
</svg>
