<svg width="20" height="20" viewBox="0 0 20 20" fill="none" xmlns="http://www.w3.org/2000/svg">
<path d="M7.0006 17.5H13.0006C16.0156 17.5 16.5556 16.2925 16.7131 14.8225L17.2756 8.8225C17.4781 6.9925 16.9531 5.5 13.7506 5.5H6.2506C3.0481 5.5 2.5231 6.9925 2.7256 8.8225L3.2881 14.8225C3.4456 16.2925 3.9856 17.5 7.0006 17.5Z" stroke="white" stroke-width="1.125" stroke-miterlimit="10" stroke-linecap="round" stroke-linejoin="round"/>
<path d="M6.99951 5.5V4.9C6.99951 3.5725 6.99951 2.5 9.39951 2.5H10.5995C12.9995 2.5 12.9995 3.5725 12.9995 4.9V5.5" stroke="white" stroke-width="1.125" stroke-miterlimit="10" stroke-linecap="round" stroke-linejoin="round"/>
<path d="M11.5005 10.75V11.5C11.5005 11.5075 11.5005 11.5075 11.5005 11.515C11.5005 12.3325 11.493 13 10.0005 13C8.51549 13 8.50049 12.34 8.50049 11.5225V10.75C8.50049 10 8.50049 10 9.25049 10H10.7505C11.5005 10 11.5005 10 11.5005 10.75Z" stroke="white" stroke-width="1.125" stroke-miterlimit="10" stroke-linecap="round" stroke-linejoin="round"/>
<path d="M17.237 9.25C15.5045 10.51 13.5245 11.26 11.4995 11.515" stroke="white" stroke-width="1.125" stroke-miterlimit="10" stroke-linecap="round" stroke-linejoin="round"/>
<path d="M2.96533 9.45312C4.65283 10.6081 6.55783 11.3056 8.50033 11.5231" stroke="white" stroke-width="1.125" stroke-miterlimit="10" stroke-linecap="round" stroke-linejoin="round"/>
</svg>
