<svg width="20" height="20" viewBox="0 0 20 20" fill="none" xmlns="http://www.w3.org/2000/svg">
<mask id="mask0_3906_64349" style="mask-type:alpha" maskUnits="userSpaceOnUse" x="0" y="0" width="20" height="20">
<rect width="20" height="20" fill="#D9D9D9"/>
</mask>
<g mask="url(#mask0_3906_64349)">
<path d="M11.2916 12.309C11.4957 12.309 11.6669 12.2398 11.8052 12.1014C11.9436 11.9631 12.0128 11.7919 12.0128 11.5878C12.0128 11.3838 11.9436 11.2125 11.8052 11.0742C11.6669 10.9359 11.4957 10.8667 11.2916 10.8667C11.0875 10.8667 10.9163 10.9359 10.778 11.0742C10.6396 11.2125 10.5705 11.3838 10.5705 11.5878C10.5705 11.7919 10.6396 11.9631 10.778 12.1014C10.9163 12.2398 11.0875 12.309 11.2916 12.309ZM10.8157 9.92755H11.7676C11.7782 9.5515 11.8162 9.27933 11.8814 9.11105C11.9465 8.94279 12.1121 8.73793 12.3781 8.49647C12.6378 8.26677 12.8821 8.01437 13.1113 7.73926C13.3405 7.46416 13.4551 7.11668 13.4551 6.6968C13.4551 6.10386 13.2533 5.62175 12.8499 5.25049C12.4464 4.87923 11.927 4.69359 11.2916 4.69359C10.8173 4.69359 10.3878 4.82554 10.0032 5.08943C9.61854 5.35332 9.33756 5.72071 9.16021 6.19161L10.0192 6.56218C10.1324 6.25341 10.2994 6.01837 10.52 5.85705C10.7406 5.69572 10.9978 5.61505 11.2916 5.61505C11.6446 5.61505 11.9348 5.71735 12.1622 5.92195C12.3895 6.12655 12.5032 6.38803 12.5032 6.70641C12.5032 7.0141 12.3915 7.28094 12.1682 7.50691C11.9449 7.73287 11.7072 7.95963 11.4551 8.1872C11.2029 8.41689 11.0333 8.653 10.9463 8.89551C10.8592 9.13804 10.8157 9.48205 10.8157 9.92755ZM6.54804 14.5846C6.17293 14.5846 5.85587 14.4551 5.59685 14.1961C5.33783 13.937 5.20831 13.62 5.20831 13.2448V3.75772C5.20831 3.38261 5.33783 3.06554 5.59685 2.80651C5.85587 2.54748 6.17293 2.41797 6.54804 2.41797H16.0352C16.4103 2.41797 16.7273 2.54748 16.9864 2.80651C17.2454 3.06554 17.3749 3.38261 17.3749 3.75772V13.2448C17.3749 13.62 17.2454 13.937 16.9864 14.1961C16.7273 14.4551 16.4103 14.5846 16.0352 14.5846H6.54804ZM6.54804 13.5013H16.0352C16.0993 13.5013 16.158 13.4746 16.2115 13.4212C16.2649 13.3677 16.2916 13.309 16.2916 13.2448V3.75772C16.2916 3.69361 16.2649 3.63484 16.2115 3.58141C16.158 3.52799 16.0993 3.50128 16.0352 3.50128H6.54804C6.48393 3.50128 6.42517 3.52799 6.37175 3.58141C6.31832 3.63484 6.2916 3.69361 6.2916 3.75772V13.2448C6.2916 13.309 6.31832 13.3677 6.37175 13.4212C6.42517 13.4746 6.48393 13.5013 6.54804 13.5013ZM3.96473 17.1679C3.58963 17.1679 3.27257 17.0384 3.01354 16.7793C2.75451 16.5203 2.625 16.2033 2.625 15.8282V5.25772H3.70831V15.8282C3.70831 15.8923 3.73502 15.951 3.78844 16.0044C3.84187 16.0579 3.90063 16.0846 3.96473 16.0846H14.5352V17.1679H3.96473Z" fill="white"/>
</g>
</svg>
