<svg width="20" height="20" viewBox="0 0 20 20" fill="none" xmlns="http://www.w3.org/2000/svg">
<mask id="mask0_3906_64317" style="mask-type:alpha" maskUnits="userSpaceOnUse" x="0" y="0" width="20" height="20">
<rect width="20" height="20" fill="#D9D9D9"/>
</mask>
<g mask="url(#mask0_3906_64317)">
<path d="M3.50006 15.2422V15.4986V6.49864V15.2422ZM3.7565 16.5819C3.38139 16.5819 3.06432 16.4524 2.80529 16.1934C2.54626 15.9344 2.41675 15.6173 2.41675 15.2422V6.75507C2.41675 6.37996 2.54626 6.06289 2.80529 5.80386C3.06432 5.54484 3.38139 5.41532 3.7565 5.41532H7.41675V4.16734C7.41675 3.79102 7.54644 3.47439 7.80583 3.21745C8.06522 2.9605 8.38272 2.83203 8.75833 2.83203H11.2491C11.6247 2.83203 11.941 2.96155 12.198 3.22057C12.4549 3.4796 12.5834 3.79666 12.5834 4.17176V5.41532H16.2436C16.6187 5.41532 16.9358 5.54484 17.1948 5.80386C17.4539 6.06289 17.5834 6.37996 17.5834 6.75507V9.72143C17.5834 9.871 17.5319 9.99866 17.4291 10.1044C17.3263 10.2102 17.1986 10.2631 17.0461 10.2631C16.8936 10.2631 16.7645 10.2112 16.6587 10.1076C16.5529 10.0039 16.5001 9.87516 16.5001 9.72143V6.75507C16.5001 6.68028 16.476 6.61884 16.4279 6.57076C16.3799 6.52268 16.3184 6.49864 16.2436 6.49864H3.7565C3.68171 6.49864 3.62027 6.52268 3.57219 6.57076C3.5241 6.61884 3.50006 6.68028 3.50006 6.75507V15.2422C3.50006 15.317 3.5241 15.3784 3.57219 15.4265C3.62027 15.4746 3.68171 15.4986 3.7565 15.4986H9.25971C9.41344 15.4986 9.54215 15.5501 9.64583 15.6529C9.74953 15.7557 9.80137 15.8834 9.80137 16.0359C9.80137 16.1884 9.74953 16.3175 9.64583 16.4233C9.54215 16.5291 9.41344 16.5819 9.25971 16.5819H3.7565ZM8.50006 5.41532H11.5001V4.17176C11.5001 4.09697 11.476 4.03553 11.4279 3.98745C11.3799 3.93937 11.3184 3.91532 11.2436 3.91532H8.7565C8.68171 3.91532 8.62027 3.93937 8.57219 3.98745C8.5241 4.03553 8.50006 4.09697 8.50006 4.17176V5.41532ZM14.9954 18.5819C13.9996 18.5819 13.1542 18.2329 12.4592 17.5348C11.7642 16.8366 11.4167 15.9897 11.4167 14.9939C11.4167 13.9981 11.7658 13.1528 12.4639 12.4578C13.162 11.7628 14.009 11.4153 15.0048 11.4153C16.0005 11.4153 16.8459 11.7644 17.5409 12.4625C18.2359 13.1606 18.5834 14.0076 18.5834 15.0033C18.5834 15.9991 18.2343 16.8445 17.5362 17.5395C16.8381 18.2345 15.9911 18.5819 14.9954 18.5819ZM14.5481 15.09L13.9087 14.4506C13.8171 14.364 13.7098 14.3194 13.5868 14.3167C13.4638 14.3141 13.3564 14.3587 13.2645 14.4506C13.1726 14.5424 13.1267 14.6486 13.1267 14.7689C13.1267 14.8892 13.1726 14.9979 13.2645 15.0948L14.5353 16.3656C14.667 16.5024 14.8207 16.5707 14.9963 16.5707C15.1719 16.5707 15.328 16.5024 15.4648 16.3656L16.7356 15.0948C16.8222 15.0032 16.8668 14.8959 16.8694 14.7729C16.8721 14.6499 16.8275 14.5424 16.7356 14.4506C16.6437 14.3587 16.5376 14.3127 16.4173 14.3127C16.297 14.3127 16.1883 14.3587 16.0914 14.4506L15.452 15.09V13.6188C15.452 13.4962 15.4073 13.3902 15.318 13.3009C15.2287 13.2116 15.1227 13.1669 15.0001 13.1669C14.8774 13.1669 14.7714 13.2116 14.6821 13.3009C14.5928 13.3902 14.5481 13.4962 14.5481 13.6188V15.09Z" fill="white"/>
</g>
</svg>
