<svg width="20" height="20" viewBox="0 0 20 20" fill="none" xmlns="http://www.w3.org/2000/svg">
<mask id="mask0_3845_99287" style="mask-type:alpha" maskUnits="userSpaceOnUse" x="0" y="0" width="20" height="20">
<rect width="20" height="20" fill="#D9D9D9"/>
</mask>
<g mask="url(#mask0_3845_99287)">
<path d="M1.97119 16.3948V3.99096C1.97119 3.8644 1.99763 3.7505 2.0505 3.64925C2.10339 3.548 2.18005 3.45838 2.28048 3.3804L5.48559 1.05669C5.62089 0.961604 5.7685 0.914062 5.92842 0.914062C6.08832 0.914062 6.23665 0.961604 6.3734 1.05669L9.57853 3.3804C9.67896 3.45838 9.75561 3.548 9.80848 3.64925C9.86137 3.7505 9.88782 3.8644 9.88782 3.99096V5.89804H17.2756C17.489 5.89804 17.6679 5.97022 17.8123 6.11458C17.9567 6.25894 18.0288 6.43783 18.0288 6.65125V16.3948C18.0288 16.6082 17.9567 16.7871 17.8123 16.9315C17.6679 17.0758 17.489 17.148 17.2756 17.148H2.72438C2.51098 17.148 2.33209 17.0758 2.18773 16.9315C2.04337 16.7871 1.97119 16.6082 1.97119 16.3948ZM3.22115 15.898H5.3045V13.8147H3.22115V15.898ZM3.22115 12.5647H5.3045V10.4814H3.22115V12.5647ZM3.22115 9.23138H5.3045V7.14802H3.22115V9.23138ZM3.22115 5.89804H5.3045V3.81469H3.22115V5.89804ZM6.55448 5.89804H8.63784V3.81469H6.55448V5.89804ZM6.55448 15.898H16.7789V7.14802H6.55448V15.898ZM12.3397 9.23138H14.1667C14.3438 9.23138 14.4922 9.2913 14.612 9.41115C14.7318 9.53098 14.7917 9.67948 14.7917 9.85665C14.7917 10.0338 14.7318 10.1822 14.612 10.3019C14.4922 10.4215 14.3438 10.4814 14.1667 10.4814H12.3397C12.1627 10.4814 12.0142 10.4214 11.8944 10.3016C11.7746 10.1817 11.7148 10.0332 11.7148 9.85608C11.7148 9.67892 11.7746 9.53051 11.8944 9.41085C12.0142 9.2912 12.1627 9.23138 12.3397 9.23138ZM12.3397 12.5647H14.1667C14.3438 12.5647 14.4922 12.6246 14.612 12.7445C14.7318 12.8643 14.7917 13.0128 14.7917 13.19C14.7917 13.3671 14.7318 13.5155 14.612 13.6352C14.4922 13.7549 14.3438 13.8147 14.1667 13.8147H12.3397C12.1627 13.8147 12.0142 13.7548 11.8944 13.6349C11.7746 13.5151 11.7148 13.3666 11.7148 13.1894C11.7148 13.0122 11.7746 12.8638 11.8944 12.7442C12.0142 12.6245 12.1627 12.5647 12.3397 12.5647ZM9.88782 9.85665C9.88782 10.0338 9.82789 10.1822 9.70805 10.3019C9.58821 10.4215 9.43971 10.4814 9.26255 10.4814C9.08539 10.4814 8.93699 10.4214 8.81734 10.3016C8.69767 10.1817 8.63784 10.0332 8.63784 9.85608C8.63784 9.67892 8.69776 9.53051 8.81761 9.41085C8.93746 9.2912 9.08596 9.23138 9.26311 9.23138C9.44028 9.23138 9.58869 9.2913 9.70834 9.41115C9.82799 9.53098 9.88782 9.67948 9.88782 9.85665ZM9.26255 13.8147C9.08539 13.8147 8.93699 13.7548 8.81734 13.6349C8.69767 13.5151 8.63784 13.3666 8.63784 13.1894C8.63784 13.0122 8.69776 12.8638 8.81761 12.7442C8.93746 12.6245 9.08596 12.5647 9.26311 12.5647C9.44028 12.5647 9.58869 12.6246 9.70834 12.7445C9.82799 12.8643 9.88782 13.0128 9.88782 13.19C9.88782 13.3671 9.82789 13.5155 9.70805 13.6352C9.58821 13.7549 9.43971 13.8147 9.26255 13.8147Z" fill="white"/>
</g>
</svg>
