<svg width="20" height="20" viewBox="0 0 20 20" fill="none" xmlns="http://www.w3.org/2000/svg">
<path d="M17.5 10.75V7.75C17.5 4 16 2.5 12.25 2.5H7.75C4 2.5 2.5 4 2.5 7.75V12.25C2.5 16 4 17.5 7.75 17.5H10.75" stroke="white" stroke-linecap="round" stroke-linejoin="round"/>
<path d="M6.49756 11.8678L8.28256 9.55031C8.53756 9.22031 9.01007 9.16032 9.34007 9.41532L10.7126 10.4953C11.0426 10.7503 11.5151 10.6903 11.7701 10.3678L13.5026 8.13281" stroke="white" stroke-linecap="round" stroke-linejoin="round"/>
<path d="M15.6089 12.8631L15.8189 13.2906C15.9239 13.5006 16.1864 13.6956 16.4189 13.7406L16.7039 13.7856C17.5589 13.9281 17.7614 14.5581 17.1464 15.1806L16.8839 15.4431C16.7114 15.6231 16.6139 15.9681 16.6664 16.2081L16.7039 16.3656C16.9364 17.4006 16.3889 17.7981 15.4889 17.2581L15.2939 17.1456C15.0614 17.0106 14.6864 17.0106 14.4539 17.1456L14.2589 17.2581C13.3514 17.8056 12.8039 17.4006 13.0439 16.3656L13.0814 16.2081C13.1339 15.9681 13.0364 15.6231 12.8639 15.4431L12.6014 15.1806C11.9864 14.5581 12.1889 13.9281 13.0439 13.7856L13.3289 13.7406C13.5539 13.7031 13.8239 13.5006 13.9289 13.2906L14.1389 12.8631C14.5439 12.0456 15.2039 12.0456 15.6089 12.8631Z" stroke="white" stroke-linecap="round" stroke-linejoin="round"/>
</svg>
