<svg width="20" height="20" viewBox="0 0 20 20" fill="none" xmlns="http://www.w3.org/2000/svg">
<mask id="mask0_3825_99174" style="mask-type:alpha" maskUnits="userSpaceOnUse" x="0" y="0" width="24" height="24">
<rect width="24" height="24" fill="#D9D9D9"/>
</mask>
<g mask="url(#mask0_3825_99174)">
<path d="M3.46144 8.95699C3.24804 8.95699 3.06915 8.88481 2.92479 8.74045C2.78043 8.59609 2.70825 8.41721 2.70825 8.2038V3.46022C2.70825 3.24682 2.78043 3.06793 2.92479 2.92357C3.06915 2.77921 3.24804 2.70703 3.46144 2.70703H8.20502C8.41843 2.70703 8.59731 2.77921 8.74167 2.92357C8.88603 3.06793 8.95821 3.24682 8.95821 3.46022V8.2038C8.95821 8.41721 8.88603 8.59609 8.74167 8.74045C8.59731 8.88481 8.41843 8.95699 8.20502 8.95699H3.46144ZM11.7948 8.95699C11.5814 8.95699 11.4025 8.88481 11.2581 8.74045C11.1138 8.59609 11.0416 8.41721 11.0416 8.2038V3.46022C11.0416 3.24682 11.1138 3.06793 11.2581 2.92357C11.4025 2.77921 11.5814 2.70703 11.7948 2.70703H16.5384C16.7518 2.70703 16.9306 2.77921 17.075 2.92357C17.2194 3.06793 17.2915 3.24682 17.2915 3.46022V8.2038C17.2915 8.41721 17.2194 8.59609 17.075 8.74045C16.9306 8.88481 16.7518 8.95699 16.5384 8.95699H11.7948ZM3.46144 17.2903C3.24804 17.2903 3.06915 17.2181 2.92479 17.0738C2.78043 16.9294 2.70825 16.7505 2.70825 16.5371V11.7936C2.70825 11.5802 2.78043 11.4013 2.92479 11.2569C3.06915 11.1125 3.24804 11.0404 3.46144 11.0404H8.20502C8.41843 11.0404 8.59731 11.1125 8.74167 11.2569C8.88603 11.4013 8.95821 11.5802 8.95821 11.7936V16.5371C8.95821 16.7505 8.88603 16.9294 8.74167 17.0738C8.59731 17.2181 8.41843 17.2903 8.20502 17.2903H3.46144ZM14.1663 17.2903C13.9891 17.2903 13.8407 17.2304 13.7211 17.1106C13.6014 16.9909 13.5416 16.8424 13.5416 16.6653V14.7903H11.6457C11.4737 14.7903 11.33 14.7304 11.2146 14.6106C11.0993 14.4907 11.0416 14.3422 11.0416 14.1651C11.0416 13.9879 11.1015 13.8395 11.2213 13.7198C11.341 13.6002 11.4895 13.5404 11.6666 13.5404H13.5416V11.6445C13.5416 11.4725 13.6015 11.3288 13.7213 11.2134C13.8412 11.0981 13.9897 11.0404 14.1668 11.0404C14.344 11.0404 14.4924 11.1003 14.6121 11.2201C14.7317 11.3398 14.7915 11.4883 14.7915 11.6653V13.5404H16.6874C16.8594 13.5404 17.0031 13.6003 17.1185 13.7201C17.2339 13.84 17.2915 13.9885 17.2915 14.1656C17.2915 14.3428 17.2317 14.4912 17.1119 14.6108C16.9921 14.7305 16.8436 14.7903 16.6666 14.7903H14.7915V16.6862C14.7915 16.8582 14.7316 17.0019 14.6118 17.1173C14.4919 17.2326 14.3434 17.2903 14.1663 17.2903ZM12.2915 3.95699V7.70703H16.0416V3.95699H12.2915ZM3.95821 3.95699V7.70703H7.70825V3.95699H3.95821ZM3.95821 12.2903V16.0404H7.70825V12.2903H3.95821Z" fill="white"/>
</g>
</svg>
