<svg width="20" height="20" viewBox="0 0 20 20" fill="none" xmlns="http://www.w3.org/2000/svg">
<mask id="mask0_3845_99279" style="mask-type:alpha" maskUnits="userSpaceOnUse" x="0" y="0" width="20" height="20">
<rect width="20" height="20" fill="#D9D9D9"/>
</mask>
<g mask="url(#mask0_3845_99279)">
<path d="M17.9165 5.25642V14.7435C17.9165 15.1645 17.7707 15.5208 17.479 15.8125C17.1874 16.1041 16.8311 16.25 16.4101 16.25H3.58967C3.16872 16.25 2.81242 16.1041 2.52075 15.8125C2.22909 15.5208 2.08325 15.1645 2.08325 14.7435V5.25642C2.08325 4.83547 2.22909 4.47917 2.52075 4.1875C2.81242 3.89583 3.16872 3.75 3.58967 3.75H16.4101C16.8311 3.75 17.1874 3.89583 17.479 4.1875C17.7707 4.47917 17.9165 4.83547 17.9165 5.25642ZM3.33323 7.00321H16.6666V5.25642C16.6666 5.19231 16.6399 5.13354 16.5864 5.0801C16.533 5.02669 16.4742 4.99998 16.4101 4.99998H3.58967C3.52556 4.99998 3.46679 5.02669 3.41336 5.0801C3.35994 5.13354 3.33323 5.19231 3.33323 5.25642V7.00321ZM3.33323 9.66342V14.7435C3.33323 14.8077 3.35994 14.8664 3.41336 14.9199C3.46679 14.9733 3.52556 15 3.58967 15H16.4101C16.4742 15 16.533 14.9733 16.5864 14.9199C16.6399 14.8664 16.6666 14.8077 16.6666 14.7435V9.66342H3.33323Z" fill="white"/>
</g>
</svg>
