<svg width="20" height="20" viewBox="0 0 20 20" fill="none" xmlns="http://www.w3.org/2000/svg">
<mask id="mask0_3845_99302" style="mask-type:alpha" maskUnits="userSpaceOnUse" x="0" y="0" width="20" height="20">
<rect width="20" height="20" fill="#D9D9D9"/>
</mask>
<g mask="url(#mask0_3845_99302)">
<path d="M4.16673 15.0366C4.91673 14.3004 5.78825 13.7206 6.78131 13.297C7.77437 12.8734 8.84728 12.6616 10.0001 12.6616C11.1528 12.6616 12.2258 12.8734 13.2188 13.297C14.2119 13.7206 15.0834 14.3004 15.8334 15.0366V4.42439C15.8334 4.36028 15.8067 4.3015 15.7533 4.24807C15.6998 4.19466 15.6411 4.16795 15.577 4.16795H4.42316C4.35905 4.16795 4.30028 4.19466 4.24685 4.24807C4.19344 4.3015 4.16673 4.36028 4.16673 4.42439V15.0366ZM10.0001 10.8667C10.7522 10.8667 11.3916 10.6033 11.9183 10.0766C12.445 9.54991 12.7084 8.91048 12.7084 8.15834C12.7084 7.40622 12.445 6.7668 11.9183 6.24009C11.3916 5.71339 10.7522 5.45003 10.0001 5.45003C9.24792 5.45003 8.60851 5.71339 8.08181 6.24009C7.5551 6.7668 7.29175 7.40622 7.29175 8.15834C7.29175 8.91048 7.5551 9.54991 8.08181 10.0766C8.60851 10.6033 9.24792 10.8667 10.0001 10.8667ZM4.42316 17.0846C4.00222 17.0846 3.64591 16.9388 3.35425 16.6471C3.06258 16.3554 2.91675 15.9991 2.91675 15.5782V4.42439C2.91675 4.00344 3.06258 3.64714 3.35425 3.35547C3.64591 3.0638 4.00222 2.91797 4.42316 2.91797H15.577C15.9979 2.91797 16.3542 3.0638 16.6459 3.35547C16.9375 3.64714 17.0834 4.00344 17.0834 4.42439V15.5782C17.0834 15.9991 16.9375 16.3554 16.6459 16.6471C16.3542 16.9388 15.9979 17.0846 15.577 17.0846H4.42316ZM5.36862 15.8346H14.6315V15.6583C13.9734 15.0707 13.2514 14.6327 12.4656 14.3442C11.6798 14.0557 10.858 13.9115 10.0001 13.9115C9.15284 13.9115 8.33499 14.0544 7.54652 14.3402C6.75805 14.626 6.03208 15.06 5.36862 15.6423V15.8346ZM10.0001 9.6167C9.59942 9.6167 9.2562 9.4738 8.97039 9.18801C8.6846 8.90222 8.54171 8.559 8.54171 8.15834C8.54171 7.75771 8.6846 7.41449 8.97039 7.1287C9.2562 6.84291 9.59942 6.70001 10.0001 6.70001C10.4007 6.70001 10.7439 6.84291 11.0297 7.1287C11.3155 7.41449 11.4584 7.75771 11.4584 8.15834C11.4584 8.559 11.3155 8.90222 11.0297 9.18801C10.7439 9.4738 10.4007 9.6167 10.0001 9.6167Z" fill="white"/>
</g>
</svg>
