<svg width="20" height="20" viewBox="0 0 20 20" fill="none" xmlns="http://www.w3.org/2000/svg">
<mask id="mask0_3825_99179" style="mask-type:alpha" maskUnits="userSpaceOnUse" x="0" y="0" width="20" height="20">
<rect width="20" height="20" fill="#D9D9D9"/>
</mask>
<g mask="url(#mask0_3825_99179)">
<path d="M12.4518 16.25C12.2745 16.25 12.126 16.1901 12.0063 16.0705C11.8867 15.9508 11.8268 15.8023 11.8268 15.625C11.8268 15.2371 12.1003 14.8971 12.6473 14.6049C13.1943 14.3127 13.9358 14.1666 14.8717 14.1666C15.8076 14.1666 16.549 14.3127 17.096 14.6049C17.643 14.8971 17.9165 15.2371 17.9165 15.625C17.9165 15.8023 17.8567 15.9508 17.737 16.0705C17.6174 16.1901 17.4689 16.25 17.2915 16.25H12.4518ZM14.8717 13.0769C14.4668 13.0769 14.1225 12.9351 13.8388 12.6514C13.5552 12.3678 13.4134 12.0235 13.4134 11.6186C13.4134 11.2137 13.5552 10.8694 13.8388 10.5857C14.1225 10.3021 14.4668 10.1603 14.8717 10.1603C15.2766 10.1603 15.6209 10.3021 15.9045 10.5857C16.1882 10.8694 16.33 11.2137 16.33 11.6186C16.33 12.0235 16.1882 12.3678 15.9045 12.6514C15.6209 12.9351 15.2766 13.0769 14.8717 13.0769ZM3.33323 15V4.99998V8.63942V8.33331V15ZM3.58967 16.25C3.16872 16.25 2.81242 16.1041 2.52075 15.8125C2.22909 15.5208 2.08325 15.1645 2.08325 14.7435V5.25642C2.08325 4.83547 2.22909 4.47917 2.52075 4.1875C2.81242 3.89583 3.16872 3.75 3.58967 3.75H7.54156C7.74241 3.75 7.93552 3.789 8.12088 3.867C8.30624 3.94499 8.46729 4.05235 8.60404 4.1891L9.83161 5.41667H16.4101C16.8311 5.41667 17.1874 5.5625 17.479 5.85417C17.7707 6.14583 17.9165 6.50214 17.9165 6.92308V8.59775C17.9165 8.7751 17.8567 8.9236 17.737 9.04325C17.6174 9.16292 17.4689 9.22275 17.2915 9.22275C17.1142 9.22275 16.9657 9.16292 16.846 9.04325C16.7264 8.9236 16.6666 8.7751 16.6666 8.59775V6.92308C16.6666 6.84829 16.6425 6.78685 16.5944 6.73877C16.5464 6.69069 16.4849 6.66665 16.4101 6.66665H9.32042L7.65375 4.99998H3.58967C3.51488 4.99998 3.45344 5.02402 3.40536 5.0721C3.35727 5.12019 3.33323 5.18163 3.33323 5.25642V14.7435C3.33323 14.8183 3.35727 14.8798 3.40536 14.9279C3.45344 14.9759 3.51488 15 3.58967 15H9.49511C9.67245 15 9.82095 15.0598 9.94061 15.1795C10.0603 15.2991 10.1201 15.4476 10.1201 15.625C10.1201 15.8023 10.0603 15.9508 9.94061 16.0705C9.82095 16.1901 9.67245 16.25 9.49511 16.25H3.58967Z" fill="white"/>
</g>
</svg>
