<svg width="20" height="20" viewBox="0 0 20 20" fill="none" xmlns="http://www.w3.org/2000/svg">
<mask id="mask0_3825_99180" style="mask-type:alpha" maskUnits="userSpaceOnUse" x="0" y="0" width="20" height="20">
<rect width="20" height="20" fill="#D9D9D9"/>
</mask>
<g mask="url(#mask0_3825_99180)">
<path d="M14.8877 10.6089C15.0651 10.6089 15.2136 10.5491 15.3332 10.4295C15.4529 10.3098 15.5127 10.1613 15.5127 9.98396C15.5127 9.80661 15.4529 9.65811 15.3332 9.53846C15.2136 9.41879 15.0651 9.35896 14.8877 9.35896H12.3556C12.1783 9.35896 12.0298 9.41879 11.9101 9.53846C11.7905 9.65811 11.7307 9.80661 11.7307 9.98396C11.7307 10.1613 11.7905 10.3098 11.9101 10.4295C12.0298 10.5491 12.1783 10.6089 12.3556 10.6089H14.8877ZM14.8877 8.2051C15.0651 8.2051 15.2136 8.14528 15.3332 8.02563C15.4529 7.90596 15.5127 7.75745 15.5127 7.58011C15.5127 7.40277 15.4529 7.25427 15.3332 7.1346C15.2136 7.01495 15.0651 6.95513 14.8877 6.95513H12.3556C12.1783 6.95513 12.0298 7.01495 11.9101 7.1346C11.7905 7.25427 11.7307 7.40277 11.7307 7.58011C11.7307 7.75745 11.7905 7.90596 11.9101 8.02563C12.0298 8.14528 12.1783 8.2051 12.3556 8.2051H14.8877ZM7.53196 10.9615C7.05332 10.9615 6.63398 11 6.27394 11.0769C5.9139 11.1538 5.59446 11.2762 5.31563 11.4439C5.06135 11.5924 4.86851 11.7585 4.73711 11.9423C4.60569 12.126 4.53998 12.3232 4.53998 12.5336C4.53998 12.6789 4.59581 12.8004 4.70746 12.8982C4.8191 12.996 4.95718 13.0448 5.12171 13.0448H9.94219C10.1067 13.0448 10.2448 12.9925 10.3564 12.8878C10.4681 12.7831 10.5239 12.6538 10.5239 12.5C10.5239 12.3119 10.4596 12.1295 10.3308 11.9527C10.2021 11.7759 10.0079 11.6063 9.74827 11.4439C9.46944 11.2762 9.15 11.1538 8.78996 11.0769C8.42992 11 8.01059 10.9615 7.53196 10.9615ZM7.53196 9.87177C7.93686 9.87177 8.28114 9.72995 8.56479 9.44629C8.84845 9.16264 8.99027 8.81836 8.99027 8.41344C8.99027 8.00854 8.84845 7.66426 8.56479 7.3806C8.28114 7.09695 7.93686 6.95513 7.53196 6.95513C7.12704 6.95513 6.78276 7.09695 6.49911 7.3806C6.21545 7.66426 6.07363 8.00854 6.07363 8.41344C6.07363 8.81836 6.21545 9.16264 6.49911 9.44629C6.78276 9.72995 7.12704 9.87177 7.53196 9.87177ZM3.58967 16.25C3.16872 16.25 2.81242 16.1041 2.52075 15.8125C2.22909 15.5208 2.08325 15.1645 2.08325 14.7435V5.25642C2.08325 4.83547 2.22909 4.47917 2.52075 4.1875C2.81242 3.89583 3.16872 3.75 3.58967 3.75H16.4101C16.8311 3.75 17.1874 3.89583 17.479 4.1875C17.7707 4.47917 17.9165 4.83547 17.9165 5.25642V14.7435C17.9165 15.1645 17.7707 15.5208 17.479 15.8125C17.1874 16.1041 16.8311 16.25 16.4101 16.25H3.58967ZM3.58967 15H16.4101C16.4742 15 16.533 14.9733 16.5864 14.9199C16.6399 14.8664 16.6666 14.8077 16.6666 14.7435V5.25642C16.6666 5.19231 16.6399 5.13354 16.5864 5.0801C16.533 5.02669 16.4742 4.99998 16.4101 4.99998H3.58967C3.52556 4.99998 3.46679 5.02669 3.41336 5.0801C3.35994 5.13354 3.33323 5.19231 3.33323 5.25642V14.7435C3.33323 14.8077 3.35994 14.8664 3.41336 14.9199C3.46679 14.9733 3.52556 15 3.58967 15Z" fill="white"/>
</g>
</svg>
