<svg width="20" height="20" viewBox="0 0 20 20" fill="none" xmlns="http://www.w3.org/2000/svg">
<mask id="mask0_3825_99178" style="mask-type:alpha" maskUnits="userSpaceOnUse" x="0" y="0" width="20" height="20">
<rect width="20" height="20" fill="#D9D9D9"/>
</mask>
<g mask="url(#mask0_3825_99178)">
<path d="M4.16656 18.4949C3.98922 18.4949 3.84072 18.4351 3.72106 18.3154C3.60141 18.1958 3.54159 18.0473 3.54159 17.8699C3.54159 17.6926 3.60141 17.5441 3.72106 17.4244C3.84072 17.3048 3.98922 17.2449 4.16656 17.2449H15.8332C16.0106 17.2449 16.1591 17.3048 16.2787 17.4244C16.3984 17.5441 16.4582 17.6926 16.4582 17.8699C16.4582 18.0473 16.3984 18.1958 16.2787 18.3154C16.1591 18.4351 16.0106 18.4949 15.8332 18.4949H4.16656ZM4.16656 2.75779C3.98922 2.75779 3.84072 2.69796 3.72106 2.57829C3.60141 2.45864 3.54159 2.31014 3.54159 2.13279C3.54159 1.95544 3.60141 1.80694 3.72106 1.68729C3.84072 1.56764 3.98922 1.50781 4.16656 1.50781H15.8332C16.0106 1.50781 16.1591 1.56764 16.2787 1.68729C16.3984 1.80694 16.4582 1.95544 16.4582 2.13279C16.4582 2.31014 16.3984 2.45864 16.2787 2.57829C16.1591 2.69796 16.0106 2.75779 15.8332 2.75779H4.16656ZM9.9999 11.2514C10.6356 11.2514 11.1764 11.0284 11.6225 10.5823C12.0685 10.1363 12.2915 9.59541 12.2915 8.95973C12.2915 8.32405 12.0685 7.78319 11.6225 7.33715C11.1764 6.8911 10.6356 6.66808 9.9999 6.66808C9.36422 6.66808 8.82336 6.8911 8.37731 7.33715C7.93127 7.78319 7.70825 8.32405 7.70825 8.95973C7.70825 9.59541 7.93127 10.1363 8.37731 10.5823C8.82336 11.0284 9.36422 11.2514 9.9999 11.2514ZM3.58967 16.2513C3.16872 16.2513 2.81242 16.1055 2.52075 15.8138C2.22909 15.5222 2.08325 15.1659 2.08325 14.7449V5.25779C2.08325 4.83685 2.22909 4.48054 2.52075 4.18887C2.81242 3.89721 3.16872 3.75137 3.58967 3.75137H16.4101C16.8311 3.75137 17.1874 3.89721 17.479 4.18887C17.7707 4.48054 17.9165 4.83685 17.9165 5.25779V14.7449C17.9165 15.1659 17.7707 15.5222 17.479 15.8138C17.1874 16.1055 16.8311 16.2513 16.4101 16.2513H3.58967ZM5.33648 15.0014C5.96148 14.3304 6.66768 13.8155 7.45506 13.4565C8.24244 13.0975 9.09072 12.918 9.9999 12.918C10.9091 12.918 11.7574 13.0975 12.5447 13.4565C13.3321 13.8155 14.0383 14.3304 14.6633 15.0014H16.4101C16.4742 15.0014 16.533 14.9746 16.5864 14.9212C16.6399 14.8678 16.6666 14.809 16.6666 14.7449V5.25779C16.6666 5.19368 16.6399 5.13491 16.5864 5.08148C16.533 5.02806 16.4742 5.00135 16.4101 5.00135H3.58967C3.52556 5.00135 3.46679 5.02806 3.41336 5.08148C3.35994 5.13491 3.33323 5.19368 3.33323 5.25779V14.7449C3.33323 14.809 3.35994 14.8678 3.41336 14.9212C3.46679 14.9746 3.52556 15.0014 3.58967 15.0014H5.33648ZM7.2499 15.0014H12.7499C12.3471 14.7236 11.9131 14.5152 11.4478 14.3764C10.9825 14.2375 10.4999 14.168 9.9999 14.168C9.4999 14.168 9.01726 14.2375 8.55198 14.3764C8.0867 14.5152 7.65268 14.7236 7.2499 15.0014ZM9.9999 10.0014C9.71037 10.0014 9.46437 9.90019 9.2619 9.69773C9.05944 9.49527 8.95821 9.24927 8.95821 8.95973C8.95821 8.6702 9.05944 8.42421 9.2619 8.22175C9.46437 8.01928 9.71037 7.91804 9.9999 7.91804C10.2894 7.91804 10.5354 8.01928 10.7379 8.22175C10.9404 8.42421 11.0416 8.6702 11.0416 8.95973C11.0416 9.24927 10.9404 9.49527 10.7379 9.69773C10.5354 9.90019 10.2894 10.0014 9.9999 10.0014Z" fill="white"/>
</g>
</svg>
