<svg width="20" height="20" viewBox="0 0 20 20" fill="none" xmlns="http://www.w3.org/2000/svg">
<path d="M10.7495 14.3243C10.651 14.3243 10.5546 14.3534 10.4726 14.4079L7.13509 16.6279L7.13465 16.6282C6.96971 16.7382 6.74951 16.6198 6.74951 16.4218V14.8243C6.74951 14.5481 6.52565 14.3243 6.24951 14.3243C5.23814 14.3243 4.43418 13.9893 3.88432 13.4395C3.33445 12.8896 2.99951 12.0856 2.99951 11.0743V6.57422C2.99951 5.56284 3.33445 4.75888 3.88432 4.20902C4.43418 3.65916 5.23814 3.32422 6.24951 3.32422H13.7495C14.7609 3.32422 15.5648 3.65916 16.1147 4.20902C16.6646 4.75888 16.9995 5.56284 16.9995 6.57422V11.0743C16.9995 12.0856 16.6646 12.8896 16.1147 13.4395C15.5648 13.9893 14.7609 14.3243 13.7495 14.3243H10.7495Z" stroke="white" stroke-miterlimit="10" stroke-linecap="round" stroke-linejoin="round"/>
<path d="M10.0004 9.51953V9.36206C10.0004 8.85206 10.3154 8.58205 10.6304 8.36455C10.9379 8.15455 11.2453 7.88456 11.2453 7.38956C11.2453 6.69956 10.6904 6.14453 10.0004 6.14453C9.31035 6.14453 8.75537 6.69956 8.75537 7.38956" stroke="white" stroke-linecap="round" stroke-linejoin="round"/>
<path d="M9.99711 11.3125H10.0039" stroke="white" stroke-linecap="round" stroke-linejoin="round"/>
</svg>
