<svg width="16" height="16" viewBox="0 0 16 16" fill="none" xmlns="http://www.w3.org/2000/svg">
<path d="M12.7534 5.25191C12.9178 5.41985 13 5.63359 13 5.89313C13 6.15267 12.9178 6.36641 12.7534 6.53435L8.6278 10.7481C8.53812 10.8397 8.44096 10.9047 8.33632 10.9432C8.23169 10.9811 8.11958 11 8 11C7.88042 11 7.76443 10.9771 7.65202 10.9313C7.54021 10.8855 7.44694 10.8244 7.3722 10.7481L3.24664 6.53435C3.08221 6.36641 3 6.15267 3 5.89313C3 5.63359 3.08221 5.41985 3.24664 5.25191C3.41106 5.08397 3.62033 5 3.87444 5C4.12855 5 4.33782 5.08397 4.50224 5.25191L8 8.82443L11.4978 5.25191C11.6622 5.08397 11.8715 5 12.1256 5C12.3797 5 12.5889 5.08397 12.7534 5.25191Z" fill="#12262F"/>
</svg>
