<svg width="78" height="44" viewBox="0 0 78 44" fill="none" xmlns="http://www.w3.org/2000/svg">
<g clip-path="url(#clip0_3351_26824)">
<path fill-rule="evenodd" clip-rule="evenodd" d="M7.834 42.7798H71.2618C71.595 42.7798 71.8671 43.0539 71.8671 43.3897C71.8671 43.7256 71.5953 44 71.2618 44H7.834C7.50058 44 7.22874 43.7256 7.22874 43.3897C7.22874 43.0539 7.50086 42.7798 7.834 42.7798ZM76.8186 42.7798H76.8119C76.4788 42.7798 76.2067 43.0539 76.2067 43.3897C76.2067 43.7256 76.4785 44 76.8119 44H76.8186C77.1518 44 77.4239 43.7256 77.4239 43.3897C77.4236 43.0539 77.1518 42.7798 76.8186 42.7798ZM74.7646 42.7798H73.7512C73.4178 42.7798 73.1456 43.0539 73.1456 43.3897C73.1456 43.7256 73.4178 44 73.7512 44H74.7646C75.0978 44 75.3699 43.7256 75.3699 43.3897C75.3699 43.0539 75.0978 42.7798 74.7646 42.7798ZM4.64421 42.7798H1.17557C0.842428 42.7798 0.570312 43.0539 0.570312 43.3897C0.570312 43.7256 0.842428 44 1.17557 44H4.64421C4.97735 44 5.24947 43.7256 5.24947 43.3897C5.24947 43.0539 4.97763 42.7798 4.64421 42.7798Z" fill="#006491"/>
<path fill-rule="evenodd" clip-rule="evenodd" d="M16.6141 6.14201H15.6482V5.17526C15.6482 4.88719 15.417 4.64746 15.1244 4.64746C14.8389 4.64746 14.6076 4.88747 14.6076 5.17526V6.14201H13.6418C13.3562 6.14201 13.125 6.38174 13.125 6.66981C13.125 6.9576 13.3562 7.19761 13.6418 7.19761H14.6076V8.16437C14.6076 8.45216 14.8389 8.69217 15.1244 8.69217C15.417 8.69217 15.6482 8.45216 15.6482 8.16437V7.19761H16.6141C16.8996 7.19761 17.1309 6.9576 17.1309 6.66981C17.1309 6.38174 16.8996 6.14201 16.6141 6.14201Z" fill="#006491"/>
<path fill-rule="evenodd" clip-rule="evenodd" d="M72.2226 34.642H71.2568V33.6686C71.2568 33.3805 71.0188 33.1475 70.733 33.1475C70.4474 33.1475 70.2162 33.3805 70.2162 33.6686V34.642H69.2504C68.9648 34.642 68.7266 34.875 68.7266 35.1631C68.7266 35.4576 68.9645 35.6909 69.2504 35.6909H70.2162V36.6644C70.2162 36.9524 70.4474 37.1855 70.733 37.1855C71.0185 37.1855 71.2568 36.9524 71.2568 36.6644V35.6909H72.2226C72.5082 35.6909 72.7394 35.4579 72.7394 35.1631C72.7394 34.8748 72.5082 34.642 72.2226 34.642Z" fill="#006491"/>
<path fill-rule="evenodd" clip-rule="evenodd" d="M65.912 17.8339C66.4428 17.8339 66.8778 17.4019 66.8778 16.8671C66.8778 16.3393 66.4428 15.9004 65.912 15.9004C65.3885 15.9004 64.9531 16.3393 64.9531 16.8671C64.9531 17.4019 65.3882 17.8339 65.912 17.8339Z" fill="#006491"/>
<path fill-rule="evenodd" clip-rule="evenodd" d="M9.59975 39.119C10.1235 39.119 10.5586 38.6871 10.5586 38.1523C10.5586 37.6175 10.1235 37.1855 9.59975 37.1855C9.06923 37.1855 8.64062 37.6175 8.64062 38.1523C8.64062 38.6871 9.06923 39.119 9.59975 39.119Z" fill="#006491"/>
<path opacity="0.1" fill-rule="evenodd" clip-rule="evenodd" d="M35.4807 6.9168C49.9759 2.6983 71.6164 19.5105 60.8585 35.5891C60.106 36.7173 59.4344 37.4508 58.5019 38.4222C56.8101 40.0333 55.5976 41.3306 54.267 42.7791H20.7492C15.0843 37.0182 12.1739 29.0696 15.9298 20.8643C19.4497 13.1853 25.1893 11.731 32.0795 8.23952C32.9687 7.78827 33.6467 7.54379 34.5792 7.21158L35.4807 6.9168Z" fill="#006491"/>
<path d="M47.5971 11.3675C47.3894 11.3675 47.1815 11.29 47.0213 11.1346C46.696 10.8188 46.6902 10.3012 47.008 9.97827L51.9616 4.94913C52.2797 4.62621 52.8011 4.62047 53.1264 4.93622C53.4516 5.25196 53.4574 5.76958 53.1396 6.0925L48.1862 11.1216C48.0248 11.2855 47.8111 11.3675 47.5971 11.3675Z" fill="#006491"/>
<path d="M52.6081 11.311C52.4004 11.311 52.1927 11.2335 52.0324 11.0778L46.9666 6.1601C46.6413 5.84436 46.6355 5.32674 46.9535 5.00382C47.2716 4.6809 47.793 4.67516 48.1183 4.9909L53.1842 9.90882C53.5094 10.2246 53.5152 10.7422 53.1972 11.0651C53.0357 11.229 52.822 11.311 52.6081 11.311Z" fill="#006491"/>
<path d="M28.6639 10.4877C27.0744 10.4877 25.7812 9.20368 25.7812 7.62593C25.7812 6.04794 27.0746 4.76416 28.6639 4.76416C30.2534 4.76416 31.5466 6.04794 31.5466 7.62593C31.5468 9.20392 30.2534 10.4877 28.6639 10.4877ZM28.6639 6.39932C27.9828 6.39932 27.4286 6.94947 27.4286 7.62593C27.4286 8.30214 27.9828 8.85229 28.6639 8.85229C29.3453 8.85229 29.8995 8.30214 29.8995 7.62593C29.8995 6.94947 29.3453 6.39932 28.6639 6.39932Z" fill="#006491"/>
<path d="M41.3468 35.8351H24.2151C22.58 35.8351 21.25 34.5147 21.25 32.8915V4.43674C21.25 2.81354 22.5803 1.49316 24.2151 1.49316H41.3468C42.9818 1.49316 44.3119 2.81378 44.3119 4.43674V32.8915C44.3119 34.5145 42.9818 35.8351 41.3468 35.8351ZM24.2151 3.12832C23.4884 3.12832 22.8973 3.71531 22.8973 4.43674V32.8915C22.8973 33.6129 23.4886 34.1997 24.2151 34.1997H41.3468C42.0735 34.1997 42.6645 33.6127 42.6645 32.8915V4.43674C42.6645 3.71531 42.0732 3.12832 41.3468 3.12832H24.2151Z" fill="#006491"/>
<path d="M46.2921 39.1064H29.1604C27.5253 39.1064 26.1953 37.786 26.1953 36.1628C26.1953 35.7112 26.564 35.3452 27.0189 35.3452C27.4738 35.3452 27.8424 35.7114 27.8424 36.1628C27.8424 36.8842 28.4337 37.4712 29.1601 37.4712H46.2919C47.0185 37.4712 47.6096 36.8842 47.6096 36.1628V14.5764C47.6096 14.1248 47.9785 13.7588 48.4331 13.7588C48.8878 13.7588 49.2567 14.1248 49.2567 14.5764V36.1628C49.2572 37.786 47.9269 39.1064 46.2921 39.1064Z" fill="#006491"/>
<path d="M51.2298 39.1061C50.7749 39.1061 50.4062 38.7399 50.4062 38.2885C50.4062 37.8369 50.7751 37.4709 51.2298 37.4709C51.9565 37.4709 52.5475 36.8839 52.5475 36.1625V13.7585C52.5475 13.3069 52.9164 12.9409 53.3711 12.9409C53.826 12.9409 54.1946 13.3071 54.1946 13.7585V36.1625C54.1949 37.7857 52.8646 39.1061 51.2298 39.1061Z" fill="#006491"/>
<path d="M31.9596 14.5765C31.5047 14.5765 31.136 14.2103 31.136 13.759V12.1781C31.136 11.4868 30.5696 10.9245 29.873 10.9245H27.457C26.7607 10.9245 26.194 11.4868 26.194 12.1781V13.759C26.194 14.2106 25.8253 14.5765 25.3704 14.5765C24.9155 14.5765 24.5469 14.2103 24.5469 13.759V12.1781C24.5469 10.585 25.8523 9.28906 27.4573 9.28906H29.8732C31.4779 9.28906 32.7834 10.585 32.7834 12.1781V13.759C32.7831 14.2106 32.4145 14.5765 31.9596 14.5765Z" fill="#006491"/>
<path d="M38.5399 8.85244H35.2454C34.7905 8.85244 34.4219 8.48623 34.4219 8.03486C34.4219 7.58326 34.7908 7.21729 35.2454 7.21729H38.5399C38.9948 7.21729 39.3634 7.5835 39.3634 8.03486C39.3634 8.48623 38.9945 8.85244 38.5399 8.85244Z" fill="#006491"/>
<path d="M40.1872 12.123H35.2454C34.7905 12.123 34.4219 11.757 34.4219 11.3054C34.4219 10.8538 34.7908 10.4878 35.2454 10.4878H40.1872C40.6421 10.4878 41.0108 10.8538 41.0108 11.3054C41.0108 11.757 40.6419 12.123 40.1872 12.123Z" fill="#006491"/>
<path d="M40.196 19.4828H25.3704C24.9155 19.4828 24.5469 19.1166 24.5469 18.6652C24.5469 18.2139 24.9158 17.8477 25.3704 17.8477H40.196C40.651 17.8477 41.0196 18.2139 41.0196 18.6652C41.0196 19.1166 40.6507 19.4828 40.196 19.4828Z" fill="#006491"/>
<path d="M31.9596 23.5702H25.3704C24.9155 23.5702 24.5469 23.204 24.5469 22.7526C24.5469 22.301 24.9158 21.9351 25.3704 21.9351H31.9596C32.4145 21.9351 32.7831 22.3013 32.7831 22.7526C32.7831 23.2042 32.4145 23.5702 31.9596 23.5702Z" fill="#006491"/>
<path d="M40.1872 23.5702H35.2454C34.7905 23.5702 34.4219 23.204 34.4219 22.7526C34.4219 22.301 34.7908 21.9351 35.2454 21.9351H40.1872C40.6421 21.9351 41.0108 22.3013 41.0108 22.7526C41.0108 23.2042 40.6419 23.5702 40.1872 23.5702Z" fill="#006491"/>
<path d="M31.136 27.6591H25.3704C24.9155 27.6591 24.5469 27.2929 24.5469 26.8415C24.5469 26.3899 24.9158 26.0239 25.3704 26.0239H31.136C31.5909 26.0239 31.9596 26.3901 31.9596 26.8415C31.9596 27.2929 31.5907 27.6591 31.136 27.6591Z" fill="#006491"/>
<path d="M35.2443 27.6591H33.597C33.1421 27.6591 32.7734 27.2929 32.7734 26.8415C32.7734 26.3899 33.1423 26.0239 33.597 26.0239H35.2443C35.6992 26.0239 36.0679 26.3901 36.0679 26.8415C36.0681 27.2929 35.6992 27.6591 35.2443 27.6591Z" fill="#006491"/>
<path d="M40.2007 27.6591H37.7298C37.2749 27.6591 36.9062 27.2929 36.9062 26.8415C36.9062 26.3899 37.2749 26.0239 37.7298 26.0239H40.2007C40.6556 26.0239 41.0243 26.3901 41.0243 26.8415C41.0243 27.2929 40.6554 27.6591 40.2007 27.6591Z" fill="#006491"/>
<path d="M50.0848 15.3939C45.9974 15.3939 42.6719 12.0925 42.6719 8.03471C42.6719 3.97695 45.9972 0.675781 50.0848 0.675781C54.1722 0.675781 57.4975 3.97695 57.4975 8.03471C57.4975 12.0925 54.1722 15.3939 50.0848 15.3939ZM50.0848 2.31118C46.9058 2.31118 44.3192 4.87873 44.3192 8.03471C44.3192 11.1907 46.9055 13.7585 50.0848 13.7585C53.2638 13.7585 55.8502 11.1909 55.8502 8.03471C55.8502 4.87849 53.2638 2.31118 50.0848 2.31118Z" fill="#006491"/>
</g>
<defs>
<clipPath id="clip0_3351_26824">
<rect width="76.8533" height="44" fill="white" transform="translate(0.570312)"/>
</clipPath>
</defs>
</svg>
