<svg width="120" height="120" viewBox="0 0 120 120" fill="none" xmlns="http://www.w3.org/2000/svg">
<rect width="120" height="120" rx="60" fill="#F4F6FA"/>
<rect width="120" height="120" rx="60" stroke="#E5E7EB"/>
<mask id="mask0_1897_26318" style="mask-type:alpha" maskUnits="userSpaceOnUse" x="44" y="44" width="32" height="32">
<rect x="44" y="44" width="32" height="32" fill="#D9D9D9"/>
</mask>
<g mask="url(#mask0_1897_26318)">
<path d="M59.9999 66.8205C61.5298 66.8205 62.8268 66.2884 63.8909 65.2243C64.955 64.1602 65.487 62.8632 65.487 61.3333C65.487 59.8034 64.955 58.5064 63.8909 57.4423C62.8268 56.3782 61.5298 55.8462 59.9999 55.8462C58.47 55.8462 57.173 56.3782 56.1089 57.4423C55.0448 58.5064 54.5128 59.8034 54.5128 61.3333C54.5128 62.8632 55.0448 64.1602 56.1089 65.2243C57.173 66.2884 58.47 66.8205 59.9999 66.8205ZM59.9999 64.8205C59.0153 64.8205 58.1879 64.4855 57.5178 63.8154C56.8477 63.1453 56.5127 62.3179 56.5127 61.3333C56.5127 60.3487 56.8477 59.5213 57.5178 58.8513C58.1879 58.1812 59.0153 57.8461 59.9999 57.8461C60.9845 57.8461 61.8119 58.1812 62.482 58.8513C63.152 59.5213 63.4871 60.3487 63.4871 61.3333C63.4871 62.3179 63.152 63.1453 62.482 63.8154C61.8119 64.4855 60.9845 64.8205 59.9999 64.8205ZM49.7435 71.3333C49.07 71.3333 48.4999 71.1 48.0333 70.6333C47.5666 70.1666 47.3333 69.5965 47.3333 68.923V53.7436C47.3333 53.0701 47.5666 52.5 48.0333 52.0334C48.4999 51.5667 49.07 51.3334 49.7435 51.3334H53.8153L55.5589 49.4436C55.7777 49.2026 56.0422 49.0129 56.3525 48.8744C56.6627 48.7359 56.9896 48.6667 57.3332 48.6667H62.6666C63.0101 48.6667 63.337 48.7359 63.6473 48.8744C63.9576 49.0129 64.2221 49.2026 64.4409 49.4436L66.1845 51.3334H70.2563C70.9298 51.3334 71.4999 51.5667 71.9665 52.0334C72.4332 52.5 72.6665 53.0701 72.6665 53.7436V68.923C72.6665 69.5965 72.4332 70.1666 71.9665 70.6333C71.4999 71.1 70.9298 71.3333 70.2563 71.3333H49.7435ZM49.7435 69.3333H70.2563C70.3759 69.3333 70.4742 69.2949 70.5512 69.2179C70.6281 69.141 70.6666 69.0427 70.6666 68.923V53.7436C70.6666 53.624 70.6281 53.5257 70.5512 53.4487C70.4742 53.3718 70.3759 53.3333 70.2563 53.3333H65.2922L62.8461 50.6667H57.1537L54.7076 53.3333H49.7435C49.6239 53.3333 49.5256 53.3718 49.4486 53.4487C49.3717 53.5257 49.3332 53.624 49.3332 53.7436V68.923C49.3332 69.0427 49.3717 69.141 49.4486 69.2179C49.5256 69.2949 49.6239 69.3333 49.7435 69.3333Z" fill="#212121"/>
</g>
</svg>
